<svg width="100" height="100" viewBox="0 0 100 100" fill="none" xmlns="http://www.w3.org/2000/svg">
<rect width="100" height="100" rx="50" fill="white"/>
<path d="M60.9997 29.5H68.4996C69.3276 29.5 69.9996 28.828 69.9996 28V17.8945C69.9996 17.1085 69.3951 16.4545 68.6121 16.399C66.2256 16.2295 61.5637 16 58.2112 16C48.9998 16 42.9999 21.52 42.9999 31.552V41.5H32.5C31.672 41.5 31 42.172 31 43V53.5C31 54.328 31.672 55 32.5 55H42.9999V83.5C42.9999 84.328 43.6719 85 44.4999 85H54.9998C55.8277 85 56.4997 84.328 56.4997 83.5V55H67.3326C68.0976 55 68.7396 54.4255 68.8236 53.665L69.9906 43.165C70.0896 42.277 69.3936 41.5 68.4996 41.5H56.4997V34C56.4997 31.5145 58.5142 29.5 60.9997 29.5Z" fill="black"/>
</svg>
