<svg width="24" height="30" viewBox="0 0 24 30" fill="none" xmlns="http://www.w3.org/2000/svg">
<path d="M21.4728 19.2025C20.4009 18.829 19.94 19.5138 19.4362 20.0325C17.0459 22.4395 15.9311 22.4602 13.4873 20.1466C13.2407 19.908 12.9728 19.6798 12.6941 19.4723C12.5654 19.3685 12.3939 19.3166 12.0295 19.1299C11.5686 19.493 11.0112 19.8665 10.5396 20.3334C8.02065 22.8752 4.6335 22.1801 3.54018 18.8498C3.27221 18.0509 3.13287 17.1898 3.10071 16.3494C3.01496 14.2537 3.07927 12.1476 2.9828 10.0519C2.72555 4.491 6.53074 1.24368 11.0112 0.372194C13.9053 -0.188047 16.8101 -0.105048 19.7149 0.548567C20.4974 3.93076 20.4974 7.16771 19.2218 10.332C17.5604 14.4301 13.9589 16.7852 9.88573 16.4947C6.6272 16.2664 5.29807 13.7869 7.01308 11.079C8.6745 8.47494 10.8504 6.36885 13.6695 4.92675C14.1304 4.6985 14.6878 4.657 15.2023 4.5325C15.2987 4.68812 15.4059 4.84375 15.5024 4.99937C15.0522 5.42474 14.6449 5.89161 14.1625 6.28585C12.6083 7.56195 10.9898 8.78618 9.47841 10.1142C8.88888 10.6329 8.43869 11.3488 8.05281 12.0439C7.09883 13.7661 7.74196 14.9177 9.78926 15.0837C12.5654 15.3016 14.8485 14.3056 16.5421 12.158C18.1821 10.0934 18.7609 7.68645 18.7395 5.12387C18.7288 4.05526 18.7395 2.99703 18.7395 2.06329C14.9343 0.403319 8.31006 1.83505 6.01623 4.75037C5.34094 5.62186 4.70853 6.77347 4.66566 7.81095C4.53703 11.1413 4.6871 14.4923 4.77285 17.8227C4.78357 18.2584 4.9765 18.7149 5.16944 19.1195C5.86617 20.5824 7.52759 20.9559 8.81385 19.9599C9.12469 19.7109 9.38194 19.3893 9.67135 19.1091C11.2149 17.5425 13.0156 17.5218 14.5699 19.0573C15.3416 19.825 16.0062 20.7795 16.9602 20.4786C18.0213 19.5449 18.718 18.7668 19.5756 18.1962C21.3334 17.0238 22.9734 17.8123 23.1878 19.8769C23.4022 21.9518 22.5018 23.7052 21.1834 25.168C17.7105 28.9964 13.1443 29.6603 8.32078 28.6229C3.7224 27.6165 1.24635 24.4107 0.0458423 20.1881C-0.0506272 19.8354 0.0351235 19.4411 0.0351235 19.0365C1.09629 18.7045 1.10701 19.4619 1.29995 20.0118C2.02883 22.1697 3.3794 23.9127 5.10513 25.4274C8.65306 28.5399 17.1531 28.9756 20.9904 22.9375C21.8587 21.5784 21.9551 20.6965 21.4621 19.1921L21.4728 19.2025Z" fill="#3B5941"/>
</svg>
