<svg width="100" height="100" viewBox="0 0 100 100" fill="none" xmlns="http://www.w3.org/2000/svg">
<rect width="100" height="100" rx="50" fill="white"/>
<path d="M37.4951 20C27.8476 20 20 27.8549 20 37.5049V62.5049C20 72.1524 27.8549 80 37.5049 80H62.5049C72.1524 80 80 72.1451 80 62.4951V37.4951C80 27.8476 72.1451 20 62.4951 20H37.4951ZM67.5 30C68.88 30 70 31.12 70 32.5C70 33.88 68.88 35 67.5 35C66.12 35 65 33.88 65 32.5C65 31.12 66.12 30 67.5 30ZM50 35C58.2725 35 65 41.7275 65 50C65 58.2725 58.2725 65 50 65C41.7275 65 35 58.2725 35 50C35 41.7275 41.7275 35 50 35ZM50 40C47.3478 40 44.8043 41.0536 42.9289 42.9289C41.0536 44.8043 40 47.3478 40 50C40 52.6522 41.0536 55.1957 42.9289 57.0711C44.8043 58.9464 47.3478 60 50 60C52.6522 60 55.1957 58.9464 57.0711 57.0711C58.9464 55.1957 60 52.6522 60 50C60 47.3478 58.9464 44.8043 57.0711 42.9289C55.1957 41.0536 52.6522 40 50 40Z" fill="black"/>
</svg>
