<svg width="48" height="48" viewBox="0 0 48 48" fill="none" xmlns="http://www.w3.org/2000/svg">
<path d="M42.0845 3.85986C42.3126 3.69893 42.5834 3.64159 42.772 3.77393V3.7749L42.7837 3.78076C42.932 3.85925 43.0377 3.95505 43.1069 4.06494C43.1759 4.17445 43.2124 4.30398 43.2124 4.45752V4.4585C43.2925 10.3111 42.4104 15.9942 40.5669 21.5073C38.9597 26.0996 37.2806 31.3422 32.4858 35.5708C30.8848 36.9262 27.5266 39.4633 22.812 40.478C21.9263 40.6485 20.3307 40.9858 18.5767 40.9858C16.7457 40.9858 14.6801 40.5646 12.854 39.3901C12.8391 39.3761 12.8195 39.3596 12.7983 39.3423C12.7687 39.3181 12.7306 39.2868 12.6851 39.2505C12.5936 39.1776 12.4712 39.0798 12.3267 38.9585C12.0376 38.7159 11.6593 38.3787 11.2612 37.9575L11.1812 37.8735L11.1099 37.9644C9.5055 40.0017 7.82098 42.0393 6.05615 44.0767C5.98162 44.1555 5.91102 44.21 5.83545 44.2456C5.76043 44.2809 5.67474 44.3002 5.56689 44.3003C5.43576 44.3003 5.21804 44.2271 4.98877 44.0669C4.71242 43.7656 4.71462 43.3222 4.99658 43.0239L4.99854 43.0229C6.8475 40.9812 8.61603 38.8541 10.2241 36.7271L10.2749 36.6597L10.2173 36.5981C10.1892 36.5684 10.1739 36.5392 10.1538 36.4966C10.1354 36.4577 10.111 36.4086 10.0669 36.3579H10.0679C8.43631 33.7891 7.89584 30.5615 8.11572 27.3569C8.33559 24.1527 9.31469 20.9798 10.7124 18.5288C11.3528 17.4277 13.7507 13.6258 18.0601 11.4302H18.061C20.9332 9.91054 24.0461 9.4867 29.1909 8.80615H29.1929C29.7518 8.72167 30.1909 8.67875 30.5513 8.64697C30.9039 8.61588 31.1875 8.5933 31.4312 8.55127C31.9191 8.5507 32.2568 8.46447 32.8853 8.38135L32.8931 8.37939C36.1199 7.69636 39.264 6.16085 42.0845 3.85986ZM41.6479 6.07568C39.1732 7.82152 36.4878 9.04647 33.856 9.75049L33.3306 9.88428C32.6128 10.053 32.3056 10.0507 31.7329 10.1372L31.73 10.1382C31.4945 10.1797 31.219 10.2008 30.855 10.2329C30.6739 10.2489 30.4724 10.2671 30.2456 10.2925L29.4858 10.3921C24.5112 11.0713 21.5212 11.4982 18.7729 12.8667L18.772 12.8677C14.8129 14.9196 12.6324 18.3367 12.0649 19.3657C10.8131 21.5878 9.90473 24.4274 9.6626 27.2886C9.42052 30.1491 9.84338 33.0406 11.2632 35.3589L11.3413 35.4858L11.4292 35.3657C11.9912 34.6011 12.5549 33.8341 13.1187 32.9819C13.6831 32.1286 14.1621 31.3692 14.564 30.7739L14.5806 30.7485V21.4546C14.5806 21.2207 14.6548 21.0339 14.7749 20.9067C14.8945 20.7803 15.0676 20.7047 15.2837 20.7046C15.5 20.7046 15.6738 20.7802 15.7935 20.9067C15.9136 21.0339 15.9868 21.2207 15.9868 21.4546V28.5142L16.1714 28.2212C16.9708 26.9523 17.6063 26.1124 18.8794 25.1021L18.8813 25.1011C19.597 24.5122 20.3132 24.0908 20.9526 23.7524L21.0054 23.7241V18.0552C21.0054 17.8213 21.0796 17.6345 21.1997 17.5073C21.3193 17.381 21.4924 17.3052 21.7085 17.3052C21.9249 17.3052 22.0986 17.3808 22.2183 17.5073C22.3384 17.6345 22.4116 17.8213 22.4116 18.0552V23.1313L22.5483 23.0767C23.1865 22.8235 23.7458 22.6548 24.3081 22.4849L24.3071 22.4839C25.2755 22.2275 26.2451 21.887 27.2944 21.3745L27.3657 21.3394L27.3472 21.2612L25.8218 14.8872H25.8228L25.8179 14.8755L25.7974 14.8071C25.7597 14.6465 25.7948 14.4726 25.8813 14.3228C25.9807 14.151 26.1398 14.0242 26.3071 13.9888L26.3169 13.9868L26.3257 13.9829C26.4887 13.9139 26.6744 13.9458 26.8345 14.0493C26.995 14.1531 27.1173 14.322 27.1519 14.5044L27.1528 14.5083L28.5181 20.3726L28.5601 20.5532L28.688 20.4185C28.7582 20.3441 28.8483 20.2862 28.9507 20.2212C29.0453 20.1611 29.1515 20.0935 29.2397 20.0034C31.0994 18.5488 32.6327 16.5829 33.8423 14.2798C34.0611 13.894 34.4826 13.7574 34.8257 13.9751C35.1873 14.2047 35.3256 14.6582 35.1138 15.0317L35.1118 15.0356C33.9937 17.233 32.5559 19.0083 30.8774 20.5308L30.6851 20.7046H36.0845C36.3008 20.7046 36.4746 20.7801 36.5942 20.9067C36.7144 21.0339 36.7876 21.2208 36.7876 21.4546C36.7876 21.6881 36.7142 21.8743 36.5942 22.0015C36.4746 22.1281 36.3008 22.2046 36.0845 22.2046H28.6665L28.6411 22.2202C27.2144 23.1428 25.9486 23.4795 24.6636 23.9038H24.6001L24.5688 24.0991L29.7866 25.7974V25.7983C30.2189 25.9508 30.4257 26.4019 30.2896 26.769C30.139 27.0844 29.8488 27.303 29.5796 27.3032H29.355L21.981 24.8442L21.9438 24.8315L21.9067 24.8481C21.2713 25.147 20.5706 25.5134 19.8608 26.061L19.5562 26.3071C18.1773 27.4233 17.7656 28.2039 16.564 30.0688C16.5205 30.1188 16.4787 30.1844 16.4438 30.2397C16.402 30.3062 16.3674 30.3602 16.3354 30.394L16.2368 30.4985L16.3696 30.5552L23.437 33.5298L23.4419 33.5317C23.8609 33.6795 24.0084 34.1236 23.8638 34.5063L23.9575 34.5415L23.8628 34.5063L23.8599 34.519C23.7936 34.7994 23.5262 34.9516 23.2349 34.9517C23.1737 34.9517 23.1272 34.9364 23.0825 34.9175C23.0628 34.9091 23.0338 34.8951 23.0103 34.8862C22.9908 34.879 22.967 34.8729 22.9409 34.8696L15.564 31.73L15.4878 31.6978L15.4419 31.7661C15.2424 32.0617 15.0233 32.3572 14.7915 32.6772C14.561 32.9954 14.3195 33.3365 14.0776 33.7202C13.435 34.6552 12.7935 35.5878 12.0728 36.52L12.0259 36.5815L12.0728 36.6431C12.4394 37.1173 12.8068 37.462 13.0825 37.689C13.2204 37.8024 13.3353 37.887 13.4165 37.9429C13.4569 37.9707 13.4891 37.9913 13.5112 38.0054C13.5223 38.0124 13.5316 38.0183 13.5376 38.022C13.5403 38.0236 13.5429 38.025 13.5444 38.0259L13.5464 38.0269L13.8423 38.2173C15.3582 39.138 17.0619 39.4001 18.5972 39.3901C20.2347 39.3794 21.6902 39.0588 22.5317 38.8892H22.5327C26.9723 37.9495 30.1192 35.5586 31.5718 34.2778C36.092 30.3487 37.7057 25.4791 39.231 20.8921C40.8408 16.2072 41.6453 11.2681 41.8062 6.16064L41.812 5.95947L41.6479 6.07568Z" fill="#3B5941" stroke="white" stroke-width="0.2"/>
</svg>
