<svg width="48" height="48" viewBox="0 0 48 48" fill="none" xmlns="http://www.w3.org/2000/svg">
<path d="M29.7959 1.85034C30.047 1.80657 30.3053 1.8457 30.5322 1.96167C30.7592 2.07774 30.9431 2.26465 31.0547 2.4939C31.1659 2.72269 31.1998 2.98147 31.1514 3.2312L28.4023 16.9802L28.3486 17.2507L28.6074 17.3484L39.4092 21.4001H39.4102C39.5915 21.4675 39.7537 21.5794 39.8818 21.7244C39.9778 21.8331 40.0524 21.9583 40.1025 22.0935L40.1445 22.2312C40.1877 22.4182 40.1843 22.6131 40.1348 22.7986C40.0975 22.938 40.0345 23.0691 39.9502 23.1853L39.8594 23.2966L18.8594 45.7957C18.6851 45.9817 18.4552 46.1064 18.2041 46.1501C17.9531 46.1939 17.6947 46.1548 17.4678 46.0388C17.2408 45.9228 17.0578 45.7358 16.9463 45.5066C16.835 45.2778 16.8003 45.0191 16.8486 44.7693L19.5898 31.0349L19.6445 30.7644L19.3857 30.6667L8.58008 26.615H8.5791C8.39748 26.547 8.23528 26.4346 8.10742 26.2888C7.97971 26.143 7.89032 25.9679 7.84668 25.7791C7.80307 25.5901 7.80648 25.3929 7.85742 25.2058C7.90846 25.0187 8.00517 24.8466 8.13867 24.7058L8.14062 24.7039L29.1406 2.20386C29.3149 2.01801 29.5449 1.89412 29.7959 1.85034ZM27.2539 7.66284L11.3877 24.6619L11.0557 25.0164L11.5107 25.1873L21.417 28.908V28.9089C21.6771 29.0078 21.8938 29.1956 22.0283 29.4392C22.1459 29.6523 22.1946 29.8962 22.168 30.1365L22.1514 30.24L20.1885 40.0613L19.9639 41.1843L20.7441 40.3464L36.6055 23.3386L36.9365 22.9832L36.4814 22.8123L26.582 19.1003H26.583C26.3229 19.0015 26.1062 18.8137 25.9717 18.5701C25.8372 18.3265 25.7937 18.043 25.8486 17.7703V17.7693L27.8096 7.948L28.0342 6.8269L27.2539 7.66284Z" fill="#3B5941" stroke="white" stroke-width="0.65"/>
</svg>
