<svg width="100" height="100" viewBox="0 0 100 100" fill="none" xmlns="http://www.w3.org/2000/svg">
<rect width="100" height="100" rx="50" fill="white"/>
<path d="M79.2135 34.25C78.6219 30.9512 75.803 28.5488 72.5316 27.7988C67.6362 26.75 58.5762 26 48.7738 26C38.9772 26 29.7722 26.75 24.8709 27.7988C21.6054 28.5488 18.7807 30.7988 18.1891 34.25C17.5916 38 17 43.25 17 50C17 56.75 17.5916 62 18.3341 65.75C18.9315 69.0488 21.7504 71.4512 25.016 72.2012C30.213 73.25 39.1222 74 48.9246 74C58.727 74 67.6362 73.25 72.8332 72.2012C76.0988 71.4512 78.9177 69.2012 79.5151 65.75C80.1068 62 80.8492 56.5977 81 50C80.6984 43.25 79.956 38 79.2135 34.25ZM40.7578 60.5V39.5L58.872 50L40.7578 60.5Z" fill="black"/>
</svg>
